<svg width="136" height="136" viewBox="0 0 136 136" fill="none" xmlns="http://www.w3.org/2000/svg">
<path d="M119.3 32.9C119.833 31.9 120.733 31.2 122 30.8C123.267 30.4 124.867 30.2 126.8 30.2C128.733 30.2 130.267 30.3667 131.4 30.7C132.533 31.0333 133.4 31.4333 134 31.9C134.6 32.3667 135.067 33.0333 135.4 33.9C135.733 35.0333 135.9 36.7667 135.9 39.1V94.6C135.9 96.1333 135.833 97.3 135.7 98.1C135.633 98.8333 135.333 99.7 134.8 100.7C133.867 102.5 131.267 103.4 127 103.4C122.333 103.4 119.6 102.167 118.8 99.7C118.4 98.5667 118.2 96.8333 118.2 94.5V74.2H91.7V94.6C91.7 96.1333 91.6333 97.3 91.5 98.1C91.4333 98.8333 91.1333 99.7 90.6 100.7C89.6667 102.5 87.0667 103.4 82.8 103.4C78.1333 103.4 75.4 102.167 74.6 99.7C74.2 98.5667 74 96.8333 74 94.5V39C74 37.4667 74.0333 36.3333 74.1 35.6C74.2333 34.8 74.5667 33.9 75.1 32.9C76.0333 31.1 78.6333 30.2 82.9 30.2C87.5667 30.2 90.3333 31.4333 91.2 33.9C91.5333 35.0333 91.7 36.7667 91.7 39.1V59.5H118.2V39C118.2 37.4667 118.233 36.3333 118.3 35.6C118.433 34.8 118.767 33.9 119.3 32.9Z" fill="url(#paint0_linear_1_4)"/>
<path d="M70.0996 30C71.0909 30 71.9924 30.0503 72.8037 30.1475C72.5629 30.4044 72.364 30.6842 72.208 30.9873C71.6221 32.0939 71.2558 33.0903 71.1094 33.9756C71.0362 34.787 71 36.0409 71 37.7373V99.1514C71 100.702 71.0817 102.013 71.2402 103.085C70.9676 103.094 70.6877 103.1 70.4004 103.1C68.4671 103.1 66.9331 102.933 65.7998 102.6C64.6668 102.266 63.8001 101.867 63.2002 101.4C62.6003 100.934 62.1331 100.267 61.7998 99.4004C61.4665 98.2671 61.2998 96.5334 61.2998 94.2002V60.7002C59.6332 62.7668 57.1998 66.0666 54 70.5996C50.8002 75.066 48.7671 77.8665 47.9004 79C47.0337 80.1333 46.4329 80.9337 46.0996 81.4004C45.766 81.8004 44.9325 82.4005 43.5996 83.2002C42.3331 83.9333 40.9334 84.2997 39.4004 84.2998C37.9337 84.2998 36.5665 83.9665 35.2998 83.2998C34.1001 82.5666 33.2335 81.8668 32.7002 81.2002L31.9004 80.0996C30.567 78.4329 27.9333 74.8999 24 69.5C20.0667 64.0333 17.9329 61.1002 17.5996 60.7002V94.4004C17.5996 95.9335 17.5337 97.1005 17.4004 97.9004C17.3337 98.6336 17.0332 99.4672 16.5 100.4C15.4999 102.2 12.8998 103.1 8.7002 103.1C4.63363 103.1 2.09966 102.2 1.09961 100.4C0.566276 99.4671 0.232943 98.5998 0.0996094 97.7998C0.0329582 96.9998 2.64874e-06 95.7999 0 94.2002V38.7002C0 37.1669 0.0329428 36.0331 0.0996094 35.2998C0.232957 34.4998 0.566305 33.5996 1.09961 32.5996C2.09966 30.8664 4.70049 30 8.90039 30C10.7002 30 12.2334 30.2336 13.5 30.7002C14.8331 31.1001 15.6995 31.5334 16.0996 32L16.7002 32.5996L39.4004 62.4004C50.7335 47.4007 58.2995 37.5003 62.0996 32.7002C63.2329 30.9003 65.8998 30.0001 70.0996 30Z" fill="url(#paint1_linear_1_4)"/>
<defs>
<linearGradient id="paint0_linear_1_4" x1="105" y1="6.50001" x2="105" y2="127.5" gradientUnits="userSpaceOnUse">
<stop stop-color="#EC003F"/>
<stop offset="1" stop-color="#E60076"/>
</linearGradient>
<linearGradient id="paint1_linear_1_4" x1="37.5" y1="6.2" x2="37.5" y2="127.2" gradientUnits="userSpaceOnUse">
<stop stop-color="#009966"/>
<stop offset="1" stop-color="#00A63E"/>
</linearGradient>
</defs>
</svg>
